<?xml version="1.0" encoding="utf-8"?>
<!-- Generator: Adobe Illustrator 17.0.0, SVG Export Plug-In . SVG Version: 6.00 Build 0)  -->
<!DOCTYPE svg PUBLIC "-//W3C//DTD SVG 1.1//EN" "http://www.w3.org/Graphics/SVG/1.1/DTD/svg11.dtd">
<svg version="1.1" id="Capa_1" xmlns="http://www.w3.org/2000/svg" xmlns:xlink="http://www.w3.org/1999/xlink" x="0px" y="0px"
	 width="1600px" height="1000px" viewBox="0 0 1600 1000" enable-background="new 0 0 1600 1000" xml:space="preserve">
<g>
	<g>
		<path fill="#5D8FA7" d="M800,18.519L800,18.519c265.907,0,481.481,215.574,481.481,481.481l0,0
			c0,265.907-215.574,481.482-481.481,481.482l0,0c-265.907,0-481.481-215.574-481.481-481.482l0,0
			C318.519,234.093,534.093,18.519,800,18.519z"/>
		<path fill="#5D8FA7" d="M800,1000c-275.704,0-500-224.296-500-500S524.296,0,800,0s500,224.296,500,500S1075.704,1000,800,1000z
			 M800,37.037c-255.278,0-462.963,207.685-462.963,462.963S544.722,962.963,800,962.963S1262.963,755.278,1262.963,500
			S1055.278,37.037,800,37.037z"/>
	</g>
	<path fill="#FFFFFF" d="M887.148,740.741c-4.741,0-9.481-1.815-13.093-5.426L661.13,522.389c-12.352-12.352-12.352-32.426,0-44.778
		l212.926-212.926c7.241-7.241,18.944-7.241,26.185,0s7.241,18.944,0,26.185L691.111,500l209.13,209.13
		c7.241,7.241,7.241,18.944,0,26.185C896.63,738.926,891.889,740.741,887.148,740.741z"/>
</g>
</svg>
